<svg width="68" height="72" viewBox="0 0 68 72" fill="none" xmlns="http://www.w3.org/2000/svg">
<g filter="url(#filter0_d_1004689_1326)">
<path d="M63.4048 44.1952L46.5184 27.1851L48.3925 17.9541C48.8761 18.1429 49.3903 18.2416 49.9093 18.2453H49.9221C52.3067 18.2735 54.2625 16.3633 54.2908 13.9788C54.3191 11.5943 52.4088 9.6384 50.0243 9.61013C47.6397 9.582 45.6839 11.4921 45.6556 13.8767C45.6496 14.3869 45.734 14.8941 45.9051 15.3749L35.9851 16.5856L19.8037 0.32C19.6052 0.117467 19.3343 0.00226667 19.0507 0C18.7707 0.00146667 18.5025 0.112933 18.304 0.3104L15.2789 3.3184C14.8625 3.73493 14.8625 4.41013 15.2789 4.82667L16.9067 6.47787C10.6005 18.0737 12.6488 32.4335 21.9456 41.8037C22.0309 41.8853 22.1299 41.9513 22.2379 41.9989C22.1707 42.3599 22.1356 42.7261 22.1333 43.0933V55.4667H9.33333C6.38933 55.4701 4.00347 57.856 4 60.8V62.9333C4 63.5224 4.4776 64 5.06667 64H54.1333C54.7224 64 55.2 63.5224 55.2 62.9333V60.8C55.1965 57.856 52.8107 55.4701 49.8667 55.4667H37.0667V49.9829C39.0719 50.4035 41.1149 50.6179 43.1637 50.6229C48.08 50.6176 52.918 49.392 57.2437 47.056L58.88 48.7019C59.0785 48.9044 59.3495 49.0196 59.6331 49.0219C59.9131 49.0204 60.1812 48.9089 60.3797 48.7115L63.4048 45.7035C63.8212 45.2869 63.8212 44.6117 63.4048 44.1952ZM48.4181 12.4661C49.2535 11.6352 50.6043 11.6389 51.4351 12.4743C52.266 13.3096 52.2623 14.6604 51.4269 15.4912C51.0271 15.8889 50.486 16.1121 49.922 16.112H49.9156C48.7375 16.1059 47.7872 15.1459 47.7933 13.9676C47.7963 13.4036 48.0224 12.8639 48.4223 12.4661H48.4181ZM45.9072 19.4752L44.7104 25.3664L42.3595 23.0016L45.9072 19.4752ZM44.6955 17.6715L40.8555 21.4891L37.8848 18.5024L44.6955 17.6715ZM49.8667 57.6C51.634 57.6 53.0667 59.0327 53.0667 60.8V61.8667H6.13333V60.8C6.13333 59.0327 7.566 57.6 9.33333 57.6H49.8667ZM34.9333 53.3333V55.4667H24.2667V53.3333H34.9333ZM24.2667 51.2V43.0933C24.2667 40.5056 26.6592 38.4 29.6 38.4C32.5408 38.4 34.9333 40.5056 34.9333 43.0933V51.2H24.2667ZM37.0667 47.808V43.0933C37.0667 39.3291 33.7173 36.2667 29.6 36.2667C26.9379 36.2259 24.4485 37.5809 23.0379 39.8389C14.9224 31.2913 13.0949 18.5485 18.4807 8.06467L55.6843 45.4816C49.9395 48.404 43.354 49.2268 37.0667 47.808ZM59.6448 46.4405L58.1419 44.9291L19.04 5.59147L17.5307 4.07893L19.04 2.57493L34.9099 18.5344C34.9173 18.5344 34.9216 18.5483 34.9291 18.5536L61.1584 44.9365L59.6448 46.4405Z" fill="#2E2F42"/>
<path d="M29.6096 40.5333H29.6C27.8327 40.5306 26.3979 41.9612 26.3952 43.7285C26.3925 45.4958 27.8231 46.9306 29.5904 46.9333H29.6C31.3673 46.936 32.8021 45.5054 32.8048 43.7381C32.8075 41.9708 31.3769 40.536 29.6096 40.5333ZM30.3563 44.4896C30.1555 44.6893 29.8833 44.801 29.6 44.8C29.0109 44.7969 28.5359 44.3169 28.5389 43.7278C28.5404 43.4458 28.6535 43.176 28.8533 42.977C29.0519 42.7796 29.32 42.6681 29.6 42.6666C30.1891 42.6697 30.6641 43.1497 30.6611 43.7388C30.6596 44.0208 30.5465 44.2906 30.3467 44.4896H30.3563Z" fill="#4D5AE5"/>
</g>
<defs>
<filter id="filter0_d_1004689_1326" x="-2.14148" y="0" width="72" height="72" filterUnits="userSpaceOnUse" color-interpolation-filters="sRGB">
<feFlood flood-opacity="0" result="BackgroundImageFix"/>
<feColorMatrix in="SourceAlpha" type="matrix" values="0 0 0 0 0 0 0 0 0 0 0 0 0 0 0 0 0 0 127 0" result="hardAlpha"/>
<feOffset dy="4"/>
<feGaussianBlur stdDeviation="2"/>
<feComposite in2="hardAlpha" operator="out"/>
<feColorMatrix type="matrix" values="0 0 0 0 0 0 0 0 0 0 0 0 0 0 0 0 0 0 0.25 0"/>
<feBlend mode="normal" in2="BackgroundImageFix" result="effect1_dropShadow_1004689_1326"/>
<feBlend mode="normal" in="SourceGraphic" in2="effect1_dropShadow_1004689_1326" result="shape"/>
</filter>
</defs>
</svg>
