<svg width="15" height="15" viewBox="0 0 15 15" fill="none" xmlns="http://www.w3.org/2000/svg">
<path d="M14.7487 5.2908C14.6229 4.90567 14.2901 4.62416 13.888 4.56541L10.0672 4.00965L8.35727 0.547227C7.99889 -0.182409 6.80312 -0.182409 6.44474 0.547227L4.73484 4.00965L0.913906 4.56554C0.511775 4.62416 0.179021 4.90479 0.0520195 5.29092C-0.0727323 5.67706 0.0306438 6.10156 0.321898 6.38432L3.08781 9.07986L2.43505 12.8858C2.3668 13.2858 2.53106 13.6901 2.85856 13.9291C3.19032 14.1702 3.62332 14.1999 3.98283 14.0101L7.4005 12.2127L10.8182 14.0101C10.9739 14.0922 11.1457 14.1327 11.3153 14.1327C11.5361 14.1327 11.7569 14.0644 11.9426 13.9289C12.2711 13.6901 12.4353 13.2857 12.3661 12.8857L11.7133 9.07973L14.4792 6.38419C14.769 6.10044 14.8736 5.67693 14.7487 5.2908ZM9.82291 7.94471C9.57228 8.18897 9.45703 8.5431 9.51678 8.88873L9.89866 11.117L7.89764 10.0652C7.74188 9.98312 7.57125 9.94262 7.4005 9.94262C7.22987 9.94262 7.06025 9.98312 6.90337 10.0652L4.90222 11.117L5.28409 8.88873C5.34385 8.5431 5.22859 8.19009 4.97796 7.94471L3.35769 6.36607L5.5956 6.04069C5.94335 5.99056 6.24311 5.77193 6.39886 5.45718L7.39938 3.43052L8.39989 5.45718C8.55564 5.77181 8.8554 5.99056 9.20315 6.04069L11.4411 6.36607L9.82291 7.94471Z" fill="#4D5AE5"/>
</svg>
